<svg xmlns="http://www.w3.org/2000/svg" viewBox="0 0 500 500"><g id="freepik--Shadows--inject-48"><path id="freepik--Shadow--inject-48" d="M440.1,396.52,481,373a1.05,1.05,0,0,0,0-2L379.92,312.38a3.79,3.79,0,0,0-3.44,0L335.57,336a1.06,1.06,0,0,0,0,2l101.09,58.57A3.79,3.79,0,0,0,440.1,396.52Z" style="fill:#e6e6e6"></path><ellipse id="freepik--shadow--inject-48" cx="307.83" cy="424.97" rx="66.38" ry="38.33" style="fill:#e0e0e0"></ellipse><ellipse id="freepik--shadow--inject-48" cx="200.61" cy="371.35" rx="21.25" ry="12.27" style="fill:#e0e0e0"></ellipse><polygon id="freepik--shadow--inject-48" points="98.79 465.43 47.68 435.87 149.99 376.96 201.1 406.36 98.79 465.43" style="fill:#f0f0f0"></polygon></g><g id="freepik--Furniture--inject-48"><g id="freepik--Drawer--inject-48"><polygon points="431.45 373.72 434.96 391.15 438.38 393.12 441.76 391.17 445.3 373.72 438.38 369.72 431.45 373.72" style="fill:#e0e0e0"></polygon><polygon points="431.45 373.72 434.96 391.15 438.38 393.12 441.76 391.17 445.3 373.72 438.38 369.72 431.45 373.72" style="opacity:0.05"></polygon><polygon points="438.38 393.12 438.38 377.72 431.45 373.72 434.96 391.15 438.38 393.12" style="fill:#ebebeb"></polygon><polygon points="431.45 373.72 433.72 384.98 438.38 387.67 443.02 384.99 445.3 373.72 438.38 369.72 431.45 373.72" style="opacity:0.05"></polygon><polygon points="461.91 356.14 465.42 373.56 468.84 375.54 472.22 373.58 475.77 356.14 468.84 352.14 461.91 356.14" style="fill:#e0e0e0"></polygon><polygon points="461.91 356.14 465.42 373.56 468.84 375.54 472.22 373.58 475.77 356.14 468.84 352.14 461.91 356.14" style="opacity:0.05"></polygon><polygon points="468.84 375.54 468.84 360.14 461.91 356.14 465.42 373.56 468.84 375.54" style="fill:#ebebeb"></polygon><polygon points="461.91 356.14 464.18 367.39 468.84 370.08 473.48 367.4 475.77 356.14 468.84 352.14 461.91 356.14" style="opacity:0.05"></polygon><polygon points="341.34 321.7 344.86 339.13 348.27 341.1 351.65 339.14 355.2 321.7 348.27 317.7 341.34 321.7" style="opacity:0.05"></polygon><polygon points="348.27 341.1 348.27 325.7 341.34 321.7 344.86 339.13 348.27 341.1" style="fill:#ebebeb"></polygon><polygon points="341.34 321.7 343.61 332.95 348.27 335.64 352.91 332.96 355.2 321.7 348.27 317.7 341.34 321.7" style="opacity:0.05"></polygon><g id="freepik--Cabinet--inject-48"><g id="freepik--cabinet--inject-48"><polygon points="438.38 384.86 476.13 363.06 476.13 281.36 438.38 303.15 438.38 384.86" style="fill:#e0e0e0"></polygon><polygon points="438.38 303.15 339.38 245.99 339.38 327.7 438.38 384.86 438.38 303.15" style="fill:#ebebeb"></polygon><polygon points="339.38 245.99 438.38 303.15 476.13 281.36 377.13 224.2 339.38 245.99" style="fill:#f5f5f5"></polygon><polygon points="432.99 343.63 344.77 292.69 344.77 322.68 343.78 323.25 431.99 374.18 432.99 373.61 432.99 343.63" style="fill:#e0e0e0"></polygon><polygon points="431.99 344.2 343.78 293.27 343.78 323.25 431.99 374.18 431.99 344.2" style="fill:#f5f5f5"></polygon><path d="M389.58,325.38l-7.33-4.24c-1-.55-1.73-.3-1.73.56a3.45,3.45,0,0,0,1.73,2.56l7.33,4.23c1,.55,1.73.3,1.73-.56A3.44,3.44,0,0,0,389.58,325.38Z" style="fill:#e0e0e0"></path><polygon points="432.99 307.42 344.77 256.49 344.77 286.47 343.78 287.05 432 337.98 432.99 337.4 432.99 307.42" style="fill:#e0e0e0"></polygon><polygon points="431.99 307.99 343.78 257.06 343.78 287.05 432 337.98 431.99 307.99" style="fill:#f5f5f5"></polygon><path d="M389.59,289.17l-7.34-4.23c-.95-.55-1.73-.3-1.73.56a3.46,3.46,0,0,0,1.73,2.55l7.34,4.24c1,.55,1.72.3,1.72-.56A3.47,3.47,0,0,0,389.59,289.17Z" style="fill:#e0e0e0"></path></g></g><g id="freepik--Pot--inject-48"><path d="M372.91,237.85c-4.57,2.64-4.57,6.92,0,9.57s12,2.64,16.58,0,4.57-6.93,0-9.57S377.49,235.21,372.91,237.85Z" style="fill:#e0e0e0"></path><path d="M388.49,243.22c4-4.06,6.32-14.22,2.44-17.44H371.15c-3.89,3.22-1.55,13.37,2.43,17.44a1.14,1.14,0,0,1,.11.11l.14.14.36.32.1.07c.09.08.19.15.3.23s.34.23.51.33a13.13,13.13,0,0,0,11.87,0h0a5.69,5.69,0,0,0,.52-.33l.28-.22.12-.09c.12-.1.24-.2.35-.31l.16-.15Z" style="fill:#ebebeb"></path><path d="M372.87,224.48c-4.52,2.6-4.52,6.83,0,9.43s11.83,2.61,16.34,0,4.51-6.83,0-9.43S377.38,221.87,372.87,224.48Z" style="fill:#fafafa"></path><path d="M376.07,226.33c-2.75,1.58-2.75,4.15,0,5.74a11,11,0,0,0,9.94,0c2.74-1.59,2.74-4.16,0-5.74A11,11,0,0,0,376.07,226.33Z" style="fill:#f5f5f5"></path><path d="M386,229.05a11,11,0,0,0-9.94,0,4.53,4.53,0,0,0-1.65,1.51,4.53,4.53,0,0,0,1.65,1.51,11,11,0,0,0,9.94,0,4.57,4.57,0,0,0,1.64-1.51A4.57,4.57,0,0,0,386,229.05Z" style="fill:#ebebeb"></path><path d="M376.67,230.56a22.84,22.84,0,0,1-3.59-4.78c-1.67-2.94-2-6.87-1.11-7.36s4.35,3.44,4.35,3.44a21.64,21.64,0,0,1-.37-5c.15-2.62.79-5,1.54-5.48s2.42,2.83,3.14,5.22,1.15,4.35,1.15,4.35a36.77,36.77,0,0,1,1.29-5.5c.87-2.48,1.66-3,2.27-2.8s1,1.41,1.2,4.71a33.44,33.44,0,0,1-.15,4.73s1.23-1.35,2.6-2.67,2.15-1.64,2.57-1.36.55,2.52-1.77,6.73a23.65,23.65,0,0,1-4.4,5.78S382.17,232.63,376.67,230.56Z" style="fill:#e0e0e0"></path></g><g id="freepik--Picture--inject-48"><g id="freepik--Frame--inject-48"><polygon points="433.38 285.63 431.91 286.34 404.68 270.62 406.15 269.91 433.38 285.63" style="fill:#fafafa"></polygon><polygon points="406.15 269.91 432.05 284.86 435.82 246.12 409.92 231.18 406.15 269.91" style="fill:#fff"></polygon><path d="M401.91,271.91l32.23,18.61,4.45-45.69-32.24-18.61Zm6.68-41.51,27.23,15.72-3.91,40.22-27.23-15.72Z" style="fill:#f0f0f0"></path><polygon points="404.68 270.62 406.15 269.91 409.92 231.18 408.59 230.4 404.68 270.62" style="fill:#e0e0e0"></polygon><polygon points="406.35 226.22 407.84 225.53 440.08 244.14 438.59 244.83 406.35 226.22" style="fill:#fafafa"></polygon><polygon points="440.08 244.14 438.59 244.83 434.14 290.52 435.63 289.83 440.08 244.14" style="fill:#e0e0e0"></polygon></g><g id="freepik--Land--inject-48"><polygon points="407.29 269.18 431.17 282.96 431.8 276.44 427.36 257.26 423.13 263.81 424 269.32 416.94 248.98 407.92 262.65 407.29 269.18" style="fill:#f0f0f0"></polygon><path d="M427.73,249.19a3.39,3.39,0,0,1,1.58,2.95c-.11,1.07-1,1.48-2,.91a3.37,3.37,0,0,1-1.58-3C425.88,249,426.75,248.63,427.73,249.19Z" style="fill:#f0f0f0"></path></g></g></g></g><g id="freepik--Window--inject-48"><g id="freepik--window--inject-48"><g id="freepik--window--inject-48"><g id="freepik--frame--inject-48"><polygon points="474.15 243.86 471.72 244.69 382.35 193.09 384.77 192.25 474.15 243.86" style="fill:#fafafa"></polygon><polygon points="384.77 192.25 471.72 242.45 471.72 92.54 384.77 42.36 384.77 192.25" style="fill:#fff"></polygon><path d="M377.77,194.59l98.53,56.88V91L377.77,34.16Zm4.58-153.65,89.37,51.6V244.69l-89.37-51.6Z" style="fill:#f0f0f0"></path><polygon points="382.35 193.09 384.77 192.25 384.77 42.36 382.35 40.94 382.35 193.09" style="fill:#e0e0e0"></polygon><polygon points="471.72 197.64 471.72 199.88 382.35 148.28 384.77 147.44 471.72 197.64" style="fill:#fafafa"></polygon><polygon points="471.72 130.99 471.72 133.22 382.35 81.62 384.77 80.79 471.72 130.99" style="fill:#fafafa"></polygon><polygon points="377.77 34.16 380.24 33.36 478.76 90.24 476.3 91.04 377.77 34.16" style="fill:#fafafa"></polygon><polygon points="478.76 90.24 476.3 91.04 476.3 251.47 478.76 250.67 478.76 90.24" style="fill:#e0e0e0"></polygon><polygon points="431.87 69.53 429.41 68.11 429.41 220.26 431.87 219.47 431.87 69.53" style="fill:#e0e0e0"></polygon></g><polygon points="424.83 65.48 429.41 68.11 429.41 220.26 424.83 217.62 424.83 65.48" style="fill:#f0f0f0"></polygon><polygon points="377.77 78.98 377.77 83.12 476.3 140 476.3 135.86 377.77 78.98" style="fill:#f0f0f0"></polygon><polygon points="377.77 145.63 377.77 149.76 476.3 206.65 476.3 202.51 377.77 145.63" style="fill:#f0f0f0"></polygon><polygon points="429.41 108.79 431.87 107.98 471.72 130.99 471.72 133.22 429.41 108.79" style="fill:#fafafa"></polygon><polygon points="429.41 175.42 431.87 174.61 471.72 197.62 471.72 199.85 429.41 175.42" style="fill:#fafafa"></polygon></g></g></g><g id="freepik--Door--inject-48"><g id="freepik--door--inject-48"><g id="freepik--Interior--inject-48"><polygon points="145.35 363.74 37.2 426.11 37.2 303.08 145.35 363.74" style="fill:#e0e0e0"></polygon></g><g id="freepik--interior--inject-48" style="opacity:0.15"><polygon points="145.35 363.74 37.2 426.11 37.2 303.08 145.35 363.74"></polygon></g><g id="freepik--door--inject-48"><g id="freepik--door--inject-48"><path d="M32.09,116.35V423.23l108.15-62.36V54Zm45,110L44.39,245.21v-123l32.73-18.83ZM124.39,199,91.77,217.88v-123L124.39,76Z" style="fill:#455a64"></path><polygon points="77.12 226.38 80.66 228.42 44.39 249.3 44.39 245.21 77.12 226.38" style="fill:#263238"></polygon><polygon points="124.39 199.03 127.93 201.07 91.78 221.96 88.24 219.92 124.39 199.03" style="fill:#263238"></polygon><polygon points="124.39 199.03 124.39 75.94 127.94 73.9 127.93 201.07 124.39 199.03" style="fill:#37474f"></polygon><polygon points="80.66 228.42 91.78 221.96 91.78 94.84 80.66 101.3 80.66 228.42" style="fill:#455a64"></polygon><polygon points="80.66 228.42 77.12 226.38 77.12 103.34 80.66 101.3 80.66 228.42" style="fill:#37474f"></polygon><polygon points="80.66 245.41 44.39 266.28 44.39 397.34 80.66 376.47 80.66 245.41" style="opacity:0.1"></polygon><polygon points="78.16 253.66 50.11 269.79 50.11 387.22 78.16 371.09 78.16 253.66" style="fill:#455a64"></polygon><polygon points="44.39 266.28 50.11 269.79 50.11 387.22 44.39 397.34 44.39 266.28" style="fill:#37474f"></polygon><polygon points="80.66 245.41 78.16 253.66 78.16 371.09 80.66 376.47 80.66 245.41" style="fill:#37474f"></polygon><polygon points="80.66 376.47 78.16 371.09 50.11 387.22 44.39 397.34 80.66 376.47" style="fill:#263238"></polygon><polygon points="127.94 218.05 91.78 238.95 91.78 370 127.94 349.11 127.94 218.05" style="opacity:0.1"></polygon><polygon points="125.45 226.3 97.5 242.46 97.5 359.89 125.45 343.73 125.45 226.3" style="fill:#455a64"></polygon><polygon points="91.78 238.95 97.5 242.46 97.5 359.89 91.78 370 91.78 238.95" style="fill:#37474f"></polygon><polygon points="127.94 218.05 125.45 226.3 125.45 343.73 127.94 349.11 127.94 218.05" style="fill:#37474f"></polygon><polygon points="127.94 349.11 125.45 343.73 97.5 359.89 91.78 370 127.94 349.11" style="fill:#263238"></polygon><g id="freepik--Latch--inject-48"><polygon points="34.15 255.7 35.96 256.75 35.96 286.83 34.15 285.79 34.15 255.7" style="fill:#e0e0e0"></polygon><polygon points="35.96 256.75 45.73 251.1 45.73 281.19 35.96 286.83 35.96 256.75" style="fill:#fafafa"></polygon><path d="M45.73,259.38l-4.28,2.47v4.89a.58.58,0,0,0,.87.51l3.4-2Z" style="opacity:0.05"></path><polygon points="45.73 251.1 43.92 250.06 34.15 255.7 35.96 256.75 45.73 251.1" style="fill:#ebebeb"></polygon><path d="M39.71,260.84l4.48,2.59L46,260.32l-4.48-2.58h0a.88.88,0,0,0-.9.08,2.82,2.82,0,0,0-1.27,2.2A.88.88,0,0,0,39.71,260.84Z" style="fill:#e0e0e0"></path><polygon points="41.45 261.85 43.08 262.79 43.08 260.65 44.82 259.65 43.19 258.71 41.45 259.71 41.45 261.85" style="opacity:0.1"></polygon><polygon points="43.63 260.99 43.63 265.69 61.54 255.35 61.54 250.65 43.63 260.99" style="fill:#fafafa"></polygon><polygon points="43.63 260.99 42 260.05 42 264.75 43.63 265.69 43.63 260.99" style="fill:#e0e0e0"></polygon><polygon points="61.54 250.65 59.91 249.71 42 260.05 43.63 260.99 61.54 250.65" style="fill:#ebebeb"></polygon><path d="M39.2,274.09a3.65,3.65,0,0,1,1.65-2.85c.91-.52,1.64-.1,1.64.95a3.67,3.67,0,0,1-1,2.32v3.07a1.23,1.23,0,0,1-.56,1l-.19.11c-.31.17-.56,0-.56-.33v-3.06C39.61,275.31,39.2,274.88,39.2,274.09Z" style="fill:#455a64"></path></g></g><polygon points="26.94 420.26 32.09 423.23 32.09 116.35 26.94 113.38 26.94 420.26" style="fill:#263238"></polygon><polygon points="135.09 51.01 26.94 113.38 32.09 116.35 140.24 53.98 135.09 51.01" style="fill:#37474f"></polygon></g><g id="freepik--Casing--inject-48"><polygon points="140.24 360.87 145.35 363.74 145.35 51.03 140.24 53.98 140.24 360.87" style="fill:#e0e0e0"></polygon><polygon points="145.35 363.74 161 354.71 161 23.92 21.54 104.36 21.54 435.12 37.2 426.11 37.2 113.4 145.35 51.03 145.35 363.74" style="fill:#f0f0f0"></polygon><polygon points="161 23.92 21.54 104.36 16.51 101.45 155.98 21.01 161 23.92" style="fill:#fafafa"></polygon><polygon points="21.53 435.12 21.54 104.36 16.51 101.45 16.51 432.22 21.53 435.12" style="fill:#e0e0e0"></polygon></g></g><g id="freepik--Mat--inject-48"><path id="freepik--bath-mat--inject-48" d="M196.23,406.36a2.48,2.48,0,0,0-.67-3.68,2.78,2.78,0,0,0-3,0,6.44,6.44,0,0,0-.52-1.59,3.15,3.15,0,0,0-1-1.22,2.72,2.72,0,0,0-1.78-.39,7.89,7.89,0,0,0-1.79.48,9.23,9.23,0,0,0-.87-1.9,9.65,9.65,0,0,0-1.66-2.64,2.27,2.27,0,0,0-2.29-.57c-.72.21-.83.88-.86,1.58a11.79,11.79,0,0,0-7-3c.47-.67,1.24-1.39,1.11-2.27a.28.28,0,0,0-.06-.15.23.23,0,0,0-.14-.09,2,2,0,0,0-2.35.76,2.16,2.16,0,0,0-2.9-1.46,7.23,7.23,0,0,0-6-3.83s-.43-1.62-.46-1.78a2.12,2.12,0,0,0-.87-1.4,1.08,1.08,0,0,0-1.48.28,4.75,4.75,0,0,0-.19-1.41,2,2,0,0,0-.85-1.11c-1-.57-1.27,1.23-1.53,1.86a2.52,2.52,0,0,0-4-1.56,2.23,2.23,0,0,1-.38-1.53c0-.45.52-1,.4-1.4-.33-1.18-2.24.22-2.57.72.42-1.19-1.8-2-2.28-.88a4.69,4.69,0,0,0-2.47-1.4c-.89-.19-1.7-.42-2.4.33a2,2,0,0,0-.52,1.29,1.29,1.29,0,0,0-1-.37c-1,.05-1.55,1.32-1.88,2.09a5.18,5.18,0,0,0-.79,0,2.46,2.46,0,0,0-.79.31,2.06,2.06,0,0,0-.93,1.4,5.17,5.17,0,0,0-2.07-.47,2.23,2.23,0,0,0-1.81.95,3.44,3.44,0,0,0-.38,1.29c.05-.3-1.77-.25-1.95-.21a2.8,2.8,0,0,0-2.22,2.74,3,3,0,0,0-1.9-.26,1.68,1.68,0,0,0-1.29,1.32,12.61,12.61,0,0,0-2.88.37,1.21,1.21,0,0,0-.7.91c0,.47.29.9.33,1.38a7.31,7.31,0,0,0-2.29.12,3.37,3.37,0,0,0-2.5,2.63c-1.58-.7-3.2.74-3.44,2.27-.55-.67-1.65-1.07-2.25-.22-.15.22-.54,1.07-.43,1.33a1.6,1.6,0,0,0-1.26-1,2.8,2.8,0,0,0-1.46.34c-1.84.86-3.32,2.05-3.71,4.17,0-.19-.86-.53-1-.57a3.39,3.39,0,0,0-1.23-.12,2.47,2.47,0,0,0-1.9.67c-.66.88.21,1.29.64,1.94a2.24,2.24,0,0,0-2.06.35,2.16,2.16,0,0,0-.77,2,2.39,2.39,0,0,0-2.47-.27,3.31,3.31,0,0,0-1.67,1.92,3.43,3.43,0,0,0-3.05-.57,1.6,1.6,0,0,0-.93.61,1.42,1.42,0,0,0-.11,1.16,4.37,4.37,0,0,0,.56,1.07c-.49-.74-2.3,1.46-2.41,1.77a2.18,2.18,0,0,0-3.79,2.15,4.42,4.42,0,0,0-2.81-.25c-.9.33-1.5,1.57-.86,2.28-1-.07-.72-2.27-1.72-2.18a1,1,0,0,0-.67.5,5.62,5.62,0,0,0-1,3,1.62,1.62,0,0,0-2.44-.61,1.93,1.93,0,0,0-.23,2.63,3.1,3.1,0,0,0-4.78,2.85,1.72,1.72,0,0,0-2.54-.39,4,4,0,0,0-1.25,2.62,3.54,3.54,0,0,0-3.91-.08.81.81,0,0,0-.4.51c-.08.57.86.84.86,1.41a3.6,3.6,0,0,0-4.29,2.84,3.64,3.64,0,0,0-4.79,2.6,2,2,0,0,0-2.69-.08A5.77,5.77,0,0,0,52,431.77a1.8,1.8,0,0,0-2.41.46,1.62,1.62,0,0,0,.45,2.26l48.72,28.12Z" style="fill:#6AA5DA"></path><path id="freepik--bath-mat--inject-48" d="M196.23,406.36a2.48,2.48,0,0,0-.67-3.68,2.78,2.78,0,0,0-3,0,6.44,6.44,0,0,0-.52-1.59,3.15,3.15,0,0,0-1-1.22,2.72,2.72,0,0,0-1.78-.39,7.89,7.89,0,0,0-1.79.48,9.23,9.23,0,0,0-.87-1.9,9.65,9.65,0,0,0-1.66-2.64,2.27,2.27,0,0,0-2.29-.57c-.72.21-.83.88-.86,1.58a11.79,11.79,0,0,0-7-3c.47-.67,1.24-1.39,1.11-2.27a.28.28,0,0,0-.06-.15.23.23,0,0,0-.14-.09,2,2,0,0,0-2.35.76,2.16,2.16,0,0,0-2.9-1.46,7.23,7.23,0,0,0-6-3.83s-.43-1.62-.46-1.78a2.12,2.12,0,0,0-.87-1.4,1.08,1.08,0,0,0-1.48.28,4.75,4.75,0,0,0-.19-1.41,2,2,0,0,0-.85-1.11c-1-.57-1.27,1.23-1.53,1.86a2.52,2.52,0,0,0-4-1.56,2.23,2.23,0,0,1-.38-1.53c0-.45.52-1,.4-1.4-.33-1.18-2.24.22-2.57.72.42-1.19-1.8-2-2.28-.88a4.69,4.69,0,0,0-2.47-1.4c-.89-.19-1.7-.42-2.4.33a2,2,0,0,0-.52,1.29,1.29,1.29,0,0,0-1-.37c-1,.05-1.55,1.32-1.88,2.09a5.18,5.18,0,0,0-.79,0,2.46,2.46,0,0,0-.79.31,2.06,2.06,0,0,0-.93,1.4,5.17,5.17,0,0,0-2.07-.47,2.23,2.23,0,0,0-1.81.95,3.44,3.44,0,0,0-.38,1.29c.05-.3-1.77-.25-1.95-.21a2.8,2.8,0,0,0-2.22,2.74,3,3,0,0,0-1.9-.26,1.68,1.68,0,0,0-1.29,1.32,12.61,12.61,0,0,0-2.88.37,1.21,1.21,0,0,0-.7.91c0,.47.29.9.33,1.38a7.31,7.31,0,0,0-2.29.12,3.37,3.37,0,0,0-2.5,2.63c-1.58-.7-3.2.74-3.44,2.27-.55-.67-1.65-1.07-2.25-.22-.15.22-.54,1.07-.43,1.33a1.6,1.6,0,0,0-1.26-1,2.8,2.8,0,0,0-1.46.34c-1.84.86-3.32,2.05-3.71,4.17,0-.19-.86-.53-1-.57a3.39,3.39,0,0,0-1.23-.12,2.47,2.47,0,0,0-1.9.67c-.66.88.21,1.29.64,1.94a2.24,2.24,0,0,0-2.06.35,2.16,2.16,0,0,0-.77,2,2.39,2.39,0,0,0-2.47-.27,3.31,3.31,0,0,0-1.67,1.92,3.43,3.43,0,0,0-3.05-.57,1.6,1.6,0,0,0-.93.61,1.42,1.42,0,0,0-.11,1.16,4.37,4.37,0,0,0,.56,1.07c-.49-.74-2.3,1.46-2.41,1.77a2.18,2.18,0,0,0-3.79,2.15,4.42,4.42,0,0,0-2.81-.25c-.9.33-1.5,1.57-.86,2.28-1-.07-.72-2.27-1.72-2.18a1,1,0,0,0-.67.5,5.62,5.62,0,0,0-1,3,1.62,1.62,0,0,0-2.44-.61,1.93,1.93,0,0,0-.23,2.63,3.1,3.1,0,0,0-4.78,2.85,1.72,1.72,0,0,0-2.54-.39,4,4,0,0,0-1.25,2.62,3.54,3.54,0,0,0-3.91-.08.81.81,0,0,0-.4.51c-.08.57.86.84.86,1.41a3.6,3.6,0,0,0-4.29,2.84,3.64,3.64,0,0,0-4.79,2.6,2,2,0,0,0-2.69-.08A5.77,5.77,0,0,0,52,431.77a1.8,1.8,0,0,0-2.41.46,1.62,1.62,0,0,0,.45,2.26l48.72,28.12Z" style="fill:#fff;opacity:0.8"></path><path d="M49.62,432.23a1.64,1.64,0,0,1,.56-.49L98.79,459.8l97.57-56.33a2.47,2.47,0,0,1-.13,2.89L98.79,462.61,50.07,434.49A1.62,1.62,0,0,1,49.62,432.23Z" style="fill:#6AA5DA;opacity:0.2"></path><path d="M49.62,432.23a1.64,1.64,0,0,1,.56-.49L98.79,459.8v2.81L50.07,434.49a1.6,1.6,0,0,1-.7-1.61A1.72,1.72,0,0,1,49.62,432.23Z" style="opacity:0.1"></path></g></g><g id="freepik--Umbrellas--inject-48"><g id="freepik--umbrella-stand--inject-48"><path d="M217.82,365.34c0-2.58-1.7-5.15-5.1-7.11-6.8-3.93-17.83-3.93-24.64,0-3.4,2-5.1,4.53-5.1,7.11v3.37c0,2.58,1.7,5.15,5.1,7.12,6.81,3.92,17.84,3.92,24.64,0,3.4-2,5.1-4.54,5.1-7.12Z" style="fill:#37474f"></path><path d="M212.72,358.23c3.4,2,5.1,4.53,5.1,7.11s-1.7,5.15-5.1,7.11c-6.8,3.93-17.83,3.93-24.64,0-3.4-2-5.1-4.54-5.1-7.11s1.7-5.15,5.1-7.11C194.89,354.3,205.92,354.3,212.72,358.23Z" style="fill:#455a64"></path><path d="M210.7,359.39c2.84,1.65,4.26,3.8,4.26,5.95s-1.42,4.3-4.26,5.94c-5.69,3.28-14.91,3.28-20.59,0-2.85-1.64-4.27-3.79-4.27-5.94s1.42-4.3,4.27-5.95C195.79,356.11,205,356.11,210.7,359.39Z" style="fill:#263238"></path><path d="M210.7,360.17c-5.69-3.28-14.91-3.28-20.59,0-2.67,1.54-4.07,3.54-4.23,5.56.16,2,1.56,4,4.23,5.55,5.68,3.28,14.9,3.28,20.59,0,2.67-1.54,4.07-3.53,4.23-5.55C214.77,363.71,213.37,361.71,210.7,360.17Z" style="fill:#455a64"></path><path d="M185.88,365.73a6.19,6.19,0,0,0,2.08,3.83,12.56,12.56,0,0,0,3.75,2.33,23.84,23.84,0,0,0,17.38,0,12.43,12.43,0,0,0,3.75-2.33,6.26,6.26,0,0,0,2.09-3.83,6.34,6.34,0,0,1-1.94,4,12.65,12.65,0,0,1-3.77,2.48,22.86,22.86,0,0,1-17.64,0,12.48,12.48,0,0,1-3.76-2.48A6.29,6.29,0,0,1,185.88,365.73Z" style="fill:#37474f"></path><path d="M222.67,263.49H221c0-3-2.08-5.82-5.84-8-8.11-4.68-21.31-4.68-29.42,0-3.76,2.17-5.84,5-5.84,8h-1.72c0-3.62,2.38-7,6.7-9.48,8.59-5,22.56-5,31.14,0C220.29,256.5,222.67,259.87,222.67,263.49Z" style="fill:#e0e0e0"></path><path d="M195.3,236.43a.47.47,0,0,1-.08.14c-.61.79-2.45-1.87-2.62-4.57-1.74,2.15-6.09,1.69-6.92-1.28-.45,3.05-4.71,4.05-6.71,2.14.17,2.83-1.48,5.85-2.12,4.72l5.44,18.3,9.89-.62" style="fill:#6AA5DA"></path><path d="M195.3,236.43c-.89,2.23-3.61,4.68-5.81,2.62a3.65,3.65,0,0,1-6.56.41c-1.91,2.31-4.92.23-6.08-1.88l5.44,18.3,9.89-.62Z" style="opacity:0.15"></path><polygon points="178.97 232.86 185.01 258.79 186.54 259.09 178.97 232.86" style="opacity:0.15"></polygon><polygon points="192.6 232 189.85 258.49 188.37 258.98 192.6 232" style="opacity:0.15"></polygon><path d="M192.71,341.46l-.43.11-.5.12a3.58,3.58,0,0,0-.43.15c-.63.23-.35.49-.38.85.05.7.12,1.71.21,2.92.19,2.42.49,5.64.9,8.86.19,1.61.43,3.21.67,4.72.12.75.22,1.48.35,2.16s.25,1.34.35,1.94.24,1.15.34,1.64.19.91.27,1.26c.16.7.27,1.1.27,1.1s0-.41.12-1.12q.06-.54.12-1.29c0-.49.09-1.05.12-1.66s.07-1.27.11-2,0-1.44.08-2.2c.05-1.52.08-3.14.08-4.76,0-3.24-.1-6.48-.22-8.9-.06-1.21-.12-2.22-.16-2.93-.07-.35.17-.64-.48-.79-.12,0-.3-.07-.44-.1l-.52-.06Z" style="fill:#e0e0e0"></path><path d="M186.72,221.67a.89.89,0,0,0-.52-.53,2.62,2.62,0,0,0-2.39.16.86.86,0,0,0-.46.66v.16l7.76,121.16c.39,6,1.19,6.72,2.12,6.66s1.64-.86,1.26-6.86L186.74,221.9Z" style="fill:#e0e0e0"></path><path d="M166.5,202.76a10.56,10.56,0,0,1,9.51-7.3h0a10.54,10.54,0,0,1,11.06,9.83l.66,10h0l.42,6.38a1.48,1.48,0,0,1-.8,1.34,4.72,4.72,0,0,1-4.28.28,1.51,1.51,0,0,1-1-1.18L181,205.78a4.54,4.54,0,0,0-4.77-4.22h0a4.56,4.56,0,0,0-4.08,3.09,3,3,0,0,1-5.67-1.89Z" style="fill:#37474f"></path><path d="M189.5,348.14a1.76,1.76,0,0,1,.94-1.5,5.54,5.54,0,0,1,5-.32,1.77,1.77,0,0,1,1.12,1.38l.09,1.36a1.75,1.75,0,0,1-.95,1.5,5.49,5.49,0,0,1-5,.31,1.72,1.72,0,0,1-1.12-1.37Z" style="fill:#37474f"></path><path d="M190.44,346.64a1.76,1.76,0,0,0-.94,1.5,1.74,1.74,0,0,0,1.12,1.37,5.51,5.51,0,0,0,5-.31,1.52,1.52,0,0,0-.18-2.88A5.54,5.54,0,0,0,190.44,346.64Z" style="fill:#455a64"></path><path d="M180.45,282.83c-.36-7.37,2.05-24.5,2.05-24.5l9.78-.62s4.53,16.7,5.09,24.06-.88,56.34-1.36,66h0a1.48,1.48,0,0,1-.8,1.27,4.68,4.68,0,0,1-4.23.27,1.49,1.49,0,0,1-.95-1.17C188.35,338.62,180.82,290.21,180.45,282.83Z" style="fill:#6AA5DA"></path><path d="M180.45,282.83c-.36-7.37,2.05-24.5,2.05-24.5l9.78-.62s4.53,16.7,5.09,24.06-.88,56.34-1.36,66h0a1.48,1.48,0,0,1-.8,1.27,4.68,4.68,0,0,1-4.23.27,1.49,1.49,0,0,1-.95-1.17C188.35,338.62,180.82,290.21,180.45,282.83Z" style="fill:#fff;opacity:0.35000000000000003"></path><path d="M192.18,255.26l3.12-18.83s-.67,3.69-2.42,4.68c-2.07,1.18-3.27-.13-3.27-.13a3.63,3.63,0,0,1-6.55.41s-1,1.45-3.23.54c-1.86-.76-3-4.35-3-4.35l5.44,18.3.13,2.05s.56,2,5,1.72,4.88-2.34,4.88-2.34Z" style="fill:#6AA5DA"></path><path d="M192.18,255.26l3.12-18.83s-.67,3.69-2.42,4.68c-2.07,1.18-3.27-.13-3.27-.13a3.63,3.63,0,0,1-6.55.41s-1,1.45-3.23.54c-1.86-.76-3-4.35-3-4.35l5.44,18.3.13,2.05s.56,2,5,1.72,4.88-2.34,4.88-2.34Z" style="fill:#fff;opacity:0.35000000000000003"></path><polygon points="183.06 241.39 186.54 259.09 185.01 258.79 183.06 241.39" style="fill:#6AA5DA;opacity:0.4"></polygon><polygon points="189.61 240.98 188.37 258.98 189.85 258.49 189.61 240.98" style="fill:#6AA5DA;opacity:0.4"></polygon><path d="M182.29,255.88l.13,2.05a2.47,2.47,0,0,0,1.58,1.93,7.75,7.75,0,0,0,7-.44,2.47,2.47,0,0,0,1.33-2.11l-.13-2.05a2.45,2.45,0,0,1-1.33,2.11,7.75,7.75,0,0,1-7,.44A2.47,2.47,0,0,1,182.29,255.88Z" style="fill:#37474f"></path><path d="M192.9,286.79a32.05,32.05,0,0,1,3.84,7.25,20,20,0,0,0-2.68-7.94c-1.31-2.48-2.85-4.8-4.34-7.12s-3-4.6-4.34-7a24.65,24.65,0,0,1-2.93-7.62,17,17,0,0,0,1.73,8.21,52.93,52.93,0,0,0,4.1,7.33Zm-.3,17.46a46.51,46.51,0,0,1,1.93,4.87,50.42,50.42,0,0,1,1.35,5.11,29.1,29.1,0,0,0-.53-5.33,34.36,34.36,0,0,0-1.5-5.17,77.62,77.62,0,0,0-4.68-9.61,86.26,86.26,0,0,1-4.52-9.46,37,37,0,0,1-2.6-10.16,26,26,0,0,0,1.34,10.6,55.86,55.86,0,0,0,4.27,9.84C189.37,298.06,191.15,301.08,192.6,304.25Zm-7,4.9a15.63,15.63,0,0,1-1.24-3.19,21.09,21.09,0,0,0,2.25,6.53c1,2.08,2.12,4.09,3.22,6.1s2.23,4,3.3,6c.52,1,1,2,1.49,3.09.25.51.45,1.05.68,1.58s.37,1.08.57,1.62a26.21,26.21,0,0,0-2.15-6.57c-.93-2.12-2-4.15-3.13-6.16l-3.39-6C186.61,311.19,186.07,310.18,185.58,309.15Zm4.49,14.19a61.8,61.8,0,0,0-3.44-5.88,38.61,38.61,0,0,0,2.67,6.27c.52,1,1,2,1.6,3l1.67,3a17.74,17.74,0,0,0-1.06-3.26C191.07,325.38,190.57,324.35,190.07,323.34Zm-.53,6.56c-.82-1.52-1.67-3-2.42-4.6a28.6,28.6,0,0,0,1.83,4.9c.72,1.58,1.51,3.12,2.28,4.67s1.54,3.09,2.24,4.66a38.5,38.5,0,0,1,1.82,4.84,19.94,19.94,0,0,0-1.19-5.09,44.52,44.52,0,0,0-2.1-4.79C191.21,332.93,190.38,331.41,189.54,329.9Zm-2.91-48.17a29.37,29.37,0,0,1-2.32-4.58,17.34,17.34,0,0,0,1.74,4.91c.79,1.55,1.71,3,2.63,4.48a71.13,71.13,0,0,1,5.21,8.88c-.8-3.4-2.65-6.45-4.48-9.35C188.47,284.62,187.53,283.19,186.63,281.73ZM191.05,269c1.54,2.22,3,4.43,4.54,6.69A26.39,26.39,0,0,0,193.9,272a40.6,40.6,0,0,0-2.13-3.46,41.58,41.58,0,0,1-4.21-6.85,12.67,12.67,0,0,0,1.35,3.86A40.29,40.29,0,0,0,191.05,269Z" style="fill:#6AA5DA;opacity:0.4"></path><path d="M205.77,236.43a.47.47,0,0,0,.08.14c.61.79,2.44-1.87,2.61-4.57,1.75,2.15,6.1,1.69,6.93-1.28.45,3.05,4.71,4.05,6.71,2.14-.18,2.83,1.48,5.85,2.12,4.72l-5.44,18.3-9.89-.62" style="fill:#6AA5DA"></path><path d="M205.77,236.43a.47.47,0,0,0,.08.14c.61.79,2.44-1.87,2.61-4.57,1.75,2.15,6.1,1.69,6.93-1.28.45,3.05,4.71,4.05,6.71,2.14-.18,2.83,1.48,5.85,2.12,4.72l-5.44,18.3-9.89-.62" style="opacity:0.15"></path><path d="M205.77,236.43c.89,2.23,3.61,4.68,5.81,2.62a3.64,3.64,0,0,0,6.55.41c1.92,2.31,4.93.23,6.09-1.88l-5.44,18.3-9.89-.62Z" style="opacity:0.15"></path><polygon points="222.1 232.86 216.06 258.79 214.53 259.09 222.1 232.86" style="opacity:0.15"></polygon><polygon points="208.46 232 211.22 258.49 212.7 258.98 208.46 232" style="opacity:0.15"></polygon><path d="M208.36,341.46l.43.11.5.12a3.58,3.58,0,0,1,.43.15c.63.23.35.49.38.85,0,.7-.13,1.71-.21,2.92-.19,2.42-.5,5.64-.9,8.86-.2,1.61-.43,3.21-.67,4.72-.13.75-.22,1.48-.35,2.16s-.25,1.34-.36,1.94-.23,1.15-.33,1.64-.19.91-.27,1.26c-.16.7-.27,1.1-.27,1.1s-.05-.41-.12-1.12q-.06-.54-.12-1.29c0-.49-.09-1.05-.12-1.66s-.07-1.27-.11-2-.05-1.44-.08-2.2c-.05-1.52-.08-3.14-.08-4.76,0-3.24.1-6.48.22-8.9.06-1.21.12-2.22.15-2.93.08-.35-.17-.64.49-.79a4.13,4.13,0,0,1,.44-.1l.51-.06Z" style="fill:#e0e0e0"></path><path d="M214.35,221.67a.89.89,0,0,1,.52-.53,2.62,2.62,0,0,1,2.39.16.88.88,0,0,1,.46.66l0,.16-7.76,121.16c-.38,6-1.19,6.72-2.11,6.66s-1.65-.86-1.26-6.86l7.75-121.18Z" style="fill:#e0e0e0"></path><path d="M234.56,202.76a10.55,10.55,0,0,0-9.5-7.3h0A10.54,10.54,0,0,0,214,205.29l-.67,10h0l-.42,6.38a1.48,1.48,0,0,0,.8,1.34,4.72,4.72,0,0,0,4.28.28,1.48,1.48,0,0,0,1-1.18L220,205.78a4.55,4.55,0,0,1,4.78-4.22h0a4.56,4.56,0,0,1,4.08,3.09,3,3,0,0,0,5.66-1.89Z" style="fill:#37474f"></path><path d="M211.57,348.14a1.76,1.76,0,0,0-.94-1.5,5.54,5.54,0,0,0-5-.32,1.77,1.77,0,0,0-1.12,1.38l-.09,1.36a1.76,1.76,0,0,0,.94,1.5,5.51,5.51,0,0,0,5,.31,1.74,1.74,0,0,0,1.12-1.37Z" style="fill:#37474f"></path><path d="M210.63,346.64a1.52,1.52,0,0,1-.18,2.87,5.51,5.51,0,0,1-5-.31,1.74,1.74,0,0,1-.94-1.5,1.77,1.77,0,0,1,1.12-1.38A5.54,5.54,0,0,1,210.63,346.64Z" style="fill:#455a64"></path><path d="M220.61,282.83c.37-7.37-2-24.5-2-24.5l-9.78-.62s-4.53,16.7-5.09,24.06.87,56.34,1.36,66h0a1.48,1.48,0,0,0,.8,1.27,4.66,4.66,0,0,0,4.22.27,1.49,1.49,0,0,0,1-1.17C212.72,338.62,220.24,290.21,220.61,282.83Z" style="fill:#6AA5DA"></path><path d="M208.89,255.26l-3.12-18.83s.66,3.69,2.42,4.68c2.07,1.18,3.26-.13,3.26-.13a3.64,3.64,0,0,0,6.56.41s1,1.45,3.22.54c1.87-.76,3-4.35,3-4.35l-5.44,18.3-.13,2.05s-.56,2-5,1.72-4.88-2.34-4.88-2.34Z" style="fill:#6AA5DA"></path><polygon points="218.01 241.39 214.53 259.09 216.06 258.79 218.01 241.39" style="opacity:0.15"></polygon><polygon points="211.45 240.98 212.7 258.98 211.22 258.49 211.45 240.98" style="opacity:0.15"></polygon><path d="M218.78,255.88l-.13,2.05a2.47,2.47,0,0,1-1.58,1.93,7.74,7.74,0,0,1-7-.44,2.45,2.45,0,0,1-1.33-2.11l.13-2.05a2.46,2.46,0,0,0,1.32,2.11,7.77,7.77,0,0,0,7,.44A2.49,2.49,0,0,0,218.78,255.88Z" style="fill:#37474f"></path><path d="M212.79,279.92a52.93,52.93,0,0,0,4.1-7.33,17.12,17.12,0,0,0,1.73-8.21,24.65,24.65,0,0,1-2.93,7.62c-1.33,2.38-2.82,4.68-4.34,7s-3,4.64-4.34,7.12a19.86,19.86,0,0,0-2.68,7.94,31.62,31.62,0,0,1,3.83-7.25Zm.62,15a55.86,55.86,0,0,0,4.27-9.84A25.86,25.86,0,0,0,219,274.5a36.34,36.34,0,0,1-2.6,10.16,82.75,82.75,0,0,1-4.52,9.46,77.57,77.57,0,0,0-4.67,9.61,34.36,34.36,0,0,0-1.5,5.17,29.1,29.1,0,0,0-.53,5.33,50.42,50.42,0,0,1,1.35-5.11,46.45,46.45,0,0,1,1.92-4.87C209.92,301.08,211.7,298.06,213.41,294.94Zm.48,17.25-3.39,6c-1.1,2-2.2,4-3.14,6.16a26.19,26.19,0,0,0-2.14,6.57c.2-.54.37-1.09.57-1.62s.43-1.07.67-1.58c.47-1,1-2.07,1.5-3.09,1.07-2,2.18-4,3.29-6s2.23-4,3.23-6.1a21.09,21.09,0,0,0,2.25-6.53,16.23,16.23,0,0,1-1.24,3.19C215,310.18,214.45,311.19,213.89,312.19Zm-4.33,14.24a17.74,17.74,0,0,0-1.06,3.26l1.67-3c.55-1,1.08-2,1.6-3a40.45,40.45,0,0,0,2.67-6.27,57.83,57.83,0,0,0-3.44,5.88C210.49,324.35,210,325.38,209.56,326.43Zm-.49,8.06a44.52,44.52,0,0,0-2.1,4.79,19.94,19.94,0,0,0-1.19,5.09,38.45,38.45,0,0,1,1.81-4.84c.71-1.57,1.47-3.12,2.25-4.66s1.56-3.09,2.28-4.67a29.46,29.46,0,0,0,1.83-4.9c-.75,1.58-1.6,3.08-2.43,4.6S209.86,332.93,209.07,334.49Zm2.59-48.42a31.27,31.27,0,0,0-4.48,9.35,71.13,71.13,0,0,1,5.21-8.88c.92-1.46,1.84-2.93,2.63-4.48a17.34,17.34,0,0,0,1.74-4.91,28.57,28.57,0,0,1-2.33,4.58C213.54,283.19,212.6,284.62,211.66,286.07Zm.49-20.56a12.7,12.7,0,0,0,1.36-3.86,41.58,41.58,0,0,1-4.21,6.85c-.75,1.12-1.49,2.26-2.14,3.46a26.34,26.34,0,0,0-1.68,3.71c1.52-2.26,3-4.47,4.54-6.69A37.86,37.86,0,0,0,212.15,265.51Z" style="opacity:0.15"></path><path d="M191.14,241.44l.09.14c.66.74,2.32-2,2.31-4.73,1.88,2,6.2,1.29,6.83-1.72.65,3,5,3.73,6.84,1.69,0,2.84,1.85,5.75,2.42,4.58L205.38,260l-9.91,0" style="fill:#37474f"></path><polygon points="207.21 236.82 202.85 263.09 201.35 263.49 207.21 236.82" style="fill:#263238"></polygon><polygon points="193.54 236.85 198.01 263.1 199.51 263.5 193.54 236.85" style="fill:#263238"></polygon><path d="M191.14,241.44c1,2.17,3.91,4.43,6,2.24a3.65,3.65,0,0,0,6.57,0c2.06,2.19,4.93-.08,5.95-2.26L205.38,260l-9.91,0Z" style="opacity:0.15"></path><path d="M200.5,346.09l.44.07.51.09a3.68,3.68,0,0,1,.43.13c.65.18.38.46.44.82,0,.7,0,1.72,0,2.93,0,2.42-.13,5.66-.33,8.89-.09,1.62-.22,3.24-.36,4.76-.08.75-.13,1.49-.21,2.18s-.16,1.35-.23,2-.16,1.16-.23,1.66-.13.92-.19,1.27c-.11.71-.19,1.12-.19,1.12s-.08-.41-.2-1.12c-.06-.35-.13-.78-.2-1.27s-.16-1.05-.23-1.66-.15-1.26-.24-1.95-.14-1.43-.22-2.19c-.15-1.52-.28-3.13-.38-4.75-.21-3.23-.32-6.47-.36-8.89,0-1.22,0-2.23,0-2.94.05-.35-.21-.63.43-.82a2.43,2.43,0,0,1,.43-.12l.51-.1Z" style="fill:#e0e0e0"></path><path d="M198.75,226.16a.88.88,0,0,1,.49-.57,2.65,2.65,0,0,1,2.39,0,.87.87,0,0,1,.5.63v.16l.07,121.41c0,6-.75,6.78-1.68,6.78s-1.69-.75-1.7-6.76l-.08-121.43Z" style="fill:#e0e0e0"></path><path d="M217.71,206a10.56,10.56,0,0,0-10-6.67h0a10.53,10.53,0,0,0-10.4,10.52l0,10h0v6.4a1.48,1.48,0,0,0,.88,1.29,4.77,4.77,0,0,0,4.29,0,1.51,1.51,0,0,0,.89-1.24V209.93a4.55,4.55,0,0,1,4.49-4.51h0a4.55,4.55,0,0,1,4.27,2.82,3,3,0,0,0,5.54-2.26Z" style="fill:#6AA5DA"></path><path d="M204.14,352.54a1.76,1.76,0,0,0-1-1.44,5.55,5.55,0,0,0-5,0,1.75,1.75,0,0,0-1,1.45v1.36a1.75,1.75,0,0,0,1,1.44,5.52,5.52,0,0,0,5,0,1.75,1.75,0,0,0,1-1.44Z" style="fill:#37474f"></path><path d="M203.1,351.1a1.52,1.52,0,0,1,0,2.88,5.49,5.49,0,0,1-5,0,1.52,1.52,0,0,1,0-2.88A5.55,5.55,0,0,1,203.1,351.1Z" style="fill:#455a64"></path><path d="M209,286.79c-.11-7.39-3.62-24.32-3.62-24.32l-9.8,0s-3.45,16.95-3.53,24.33,4.51,56.17,5.61,65.73h0a1.47,1.47,0,0,0,.87,1.22,4.69,4.69,0,0,0,4.24,0,1.5,1.5,0,0,0,.87-1.23C204.67,343,209.06,294.17,209,286.79Z" style="fill:#455a64"></path><path d="M195.47,260l-4.33-18.59s.9,3.64,2.72,4.52a2.58,2.58,0,0,0,3.25-.35,3.64,3.64,0,0,0,6.57,0s1.11,1.38,3.25.33c1.81-.88,2.7-4.53,2.7-4.53L205.38,260v2.05s-.43,2-4.89,2-5-2-5-2Z" style="fill:#455a64"></path><polygon points="203.68 245.6 201.35 263.49 202.85 263.09 203.68 245.6" style="fill:#37474f"></polygon><polygon points="197.11 245.61 199.51 263.5 198.01 263.1 197.11 245.61" style="fill:#37474f"></polygon><path d="M205.38,260v2.05a2.45,2.45,0,0,1-1.45,2,7.74,7.74,0,0,1-7,0,2.46,2.46,0,0,1-1.46-2V260a2.45,2.45,0,0,0,1.46,2,7.77,7.77,0,0,0,7,0A2.49,2.49,0,0,0,205.38,260Z" style="fill:#263238"></path><path d="M201,284.39a52.23,52.23,0,0,0,3.62-7.58,17,17,0,0,0,1.2-8.3,24.73,24.73,0,0,1-2.43,7.79c-1.18,2.45-2.52,4.85-3.89,7.24s-2.72,4.83-3.87,7.39a19.93,19.93,0,0,0-2.16,8.1,31.55,31.55,0,0,1,3.36-7.49Zm1.59,14.95a55.76,55.76,0,0,0,3.63-10.1,26.13,26.13,0,0,0,.65-10.66,36.89,36.89,0,0,1-1.94,10.3,86.75,86.75,0,0,1-3.9,9.74,77.37,77.37,0,0,0-4,9.89,33.83,33.83,0,0,0-1.16,5.26,28.17,28.17,0,0,0-.18,5.35,48.58,48.58,0,0,1,1-5.19,45.17,45.17,0,0,1,1.61-5C199.45,305.69,201,302.56,202.54,299.34Zm1.6,17.18-3,6.19c-1,2.09-1.94,4.18-2.74,6.35a26.29,26.29,0,0,0-1.71,6.7c.17-.56.3-1.11.47-1.66s.35-1.09.57-1.62c.39-1.07.83-2.12,1.29-3.17.93-2.09,1.91-4.16,2.9-6.23s2-4.16,2.82-6.3a20.69,20.69,0,0,0,1.82-6.66,15.54,15.54,0,0,1-1,3.27C205.11,314.44,204.63,315.48,204.14,316.52ZM200.73,331a17.77,17.77,0,0,0-.85,3.32l1.48-3.07c.49-1,.95-2.05,1.4-3.09a39.5,39.5,0,0,0,2.26-6.43,59.67,59.67,0,0,0-3.05,6.09C201.53,328.88,201.1,329.93,200.73,331Zm0,8.07A43.64,43.64,0,0,0,199,344a20.06,20.06,0,0,0-.87,5.16,39.35,39.35,0,0,1,1.51-5c.6-1.62,1.25-3.21,1.94-4.8s1.35-3.18,2-4.81a28.83,28.83,0,0,0,1.51-5c-.65,1.62-1.4,3.17-2.12,4.74S201.45,337.48,200.76,339.08Zm-.54-48.48c-1.64,3-3.29,6.17-3.86,9.62A71.26,71.26,0,0,1,201,291c.82-1.52,1.65-3,2.34-4.64a17,17,0,0,0,1.41-5,28.17,28.17,0,0,1-2,4.72C201.91,287.6,201.06,289.09,200.22,290.6Zm-.83-20.55a12.65,12.65,0,0,0,1.1-3.94,41.89,41.89,0,0,1-3.75,7.1c-.68,1.17-1.35,2.36-1.91,3.59a27,27,0,0,0-1.45,3.82c1.38-2.35,2.71-4.66,4.1-7A38.61,38.61,0,0,0,199.39,270.05Z" style="fill:#37474f"></path><path d="M200.4,276.7A31.81,31.81,0,0,1,184.83,273c-4.32-2.5-6.7-5.87-6.7-9.49h1.72c0,3,2.08,5.82,5.84,8,8.11,4.68,21.31,4.68,29.42,0,3.76-2.18,5.84-5,5.84-8h1.72c0,3.62-2.38,7-6.7,9.49A31.81,31.81,0,0,1,200.4,276.7Z" style="fill:#e0e0e0"></path></g></g><g id="freepik--Character--inject-48"><g id="freepik--character--inject-48"><g id="freepik--Bottom--inject-48"><path d="M347.76,405.39c-.95-12.65.52-22.34-.57-42.09h0c-.1-5.06-.29-10.49-.64-15.3-1.18-16.21-3.77-21.76-4-24.88,0,0-.45-25.22-1.54-60.69-.52-16.69-5.53-21.74-9.54-30.6l-49.78,0c-2.83,21.45-4.65,69.53-4.49,92.06.08,11.48,4.89,72.9,5,74.32.34,5-.11,7-2.15,9.1-4.26,4.41-10.45,8.61-15.79,12.46.77,2,7.2,1.9,10.38.4a81.64,81.64,0,0,0,11.87-7.3c4.39-3.13,10-5.65,10.07-10.42a4.26,4.26,0,0,1,.15-.85c.08-2.79,6.81-43.88,7.38-53.41.48-8.2-.56-22.11-.56-22.11L309,291.33s3.38,20.52,6.8,34.54c2.78,11.41,7.37,30.88,10.5,44.92h0c3,16.17,7.43,27.68,8.2,35.78.23,1.93,2.5,20.91,3.43,25.25s10.76,4.47,11.39-3C349.75,423.84,347.94,407.77,347.76,405.39Z" style="fill:#ffbda7"></path><path d="M309,291.33l-4-25.05s-15.5-1.78-21.14-7c0,0,7.11,9.67,17.63,11.25l4.42,20.77-2.34,34.46Z" style="fill:#874c4c"></path><path d="M255.14,424.79c-.28,0-.72,2.89.74,4.13,1.69,1.44,6.67,3.82,13.29,3.06s10.21-2.69,12.88-4.8,6.41-5.08,9.41-5.69c2.78-.56,5.81-1.74,6.71-2.56s.81-4.5.81-4.5Z" style="fill:#263238"></path><path d="M296.84,400.23s.5,0,.66.88.38,4,.79,5.63a28.32,28.32,0,0,1,.55,8.95c-.38,1.89-4.92,3.15-7.83,4.18a37.1,37.1,0,0,0-9.43,5.62c-3.14,2.43-9.7,4.85-14,4.86-6.58,0-10.82-1.74-12.11-4-1.59-2.84-.3-4.46,7.29-7.76,1.44-.62,6.5-3.44,8.22-4.46a39.17,39.17,0,0,0,5.18-3.64,28.33,28.33,0,0,0,2.33-2.18,10.08,10.08,0,0,0,1.95-2.34c.08-.19.14-.41.22-.61a9.57,9.57,0,0,0,.51-1.71c.13-.6.22-1.48.82-1.84a5.17,5.17,0,0,1,2.71-.28,20.63,20.63,0,0,1,2.91.43c1.11.25,2.39.36,3,1.37a5.18,5.18,0,0,1,.59,2.65c0,.43,0,.85,0,1.28,0,.18-.08.51.18.43s.54-.7.64-.91c.21-.48.35-1,.59-1.45a7.64,7.64,0,0,1,1-1.54,7.32,7.32,0,0,1,1.2-1.16,13,13,0,0,0,1.31-.79A3,3,0,0,0,296.84,400.23Z" style="fill:#37474f"></path><path d="M261.54,419.1c9.51.74,12.45,6.44,12.81,9.95a23.32,23.32,0,0,1-6.77,1.3c-6.58,0-11.09-1.74-12.38-4C253.7,423.64,254.76,421.51,261.54,419.1Z" style="fill:#fafafa"></path><path d="M275.81,419.35a.45.45,0,0,0,.29-.1.44.44,0,0,0,.08-.63,11.43,11.43,0,0,0-8.57-3.37.45.45,0,1,0,.08.9,10.56,10.56,0,0,1,7.76,3A.49.49,0,0,0,275.81,419.35Z" style="fill:#f0f0f0"></path><path d="M279.93,417.08a.53.53,0,0,0,.3-.09.45.45,0,0,0,.07-.64,11.39,11.39,0,0,0-8.57-3.36.46.46,0,0,0-.42.49.45.45,0,0,0,.51.4,10.54,10.54,0,0,1,7.76,3A.48.48,0,0,0,279.93,417.08Z" style="fill:#f0f0f0"></path><path d="M283.76,414.49a.47.47,0,0,0,.3-.1.44.44,0,0,0,.07-.63,11.4,11.4,0,0,0-8.57-3.36.44.44,0,0,0-.42.49.46.46,0,0,0,.51.4,10.53,10.53,0,0,1,7.75,3A.48.48,0,0,0,283.76,414.49Z" style="fill:#f0f0f0"></path><path d="M287.51,411.9a.45.45,0,0,0,.29-.1.43.43,0,0,0,.08-.63c-1.79-2.24-5.9-3.74-9.36-3.41a.46.46,0,0,0-.42.49.47.47,0,0,0,.51.4c3.12-.29,6.94,1.09,8.54,3.07A.45.45,0,0,0,287.51,411.9Z" style="fill:#f0f0f0"></path><path d="M334.86,435.21c.26,4.33,1,7.21,2.55,9.75s4.6,3.33,7.64,2.59,6.95-2.73,7.82-6.47,1.38-6.3.69-10.31Z" style="fill:#263238"></path><path d="M347.66,403.84c1.25.1,1.62,5.92,2.34,11.74.78,6.24,2.71,8.82,3.4,13.94.79,5.85-.21,8.46-2.33,12s-9.64,7-13.35,1.94c-3-4.13-3.15-8.71-2.87-14.55a127.67,127.67,0,0,0-.4-14.79c-.25-4.38-1.25-8.8-.16-9.28.08.64.16,1.46.25,2.09a9.74,9.74,0,0,0,.41,2.33c.12.33.4.67.52.14a3.62,3.62,0,0,0,0-1.09c-.19-1.61.66-1.74,1.11-1.87a57.14,57.14,0,0,1,5.82-.79c1-.07,4.26-.21,4.69.32a3.41,3.41,0,0,1,.42,1.69c.11.88.32,1.53.35,1.25.06-.63-.07-2.27-.08-2.66s-.08-.9-.09-1.28S347.68,404.22,347.66,403.84Z" style="fill:#37474f"></path><path d="M353.75,432.91a14.1,14.1,0,0,1-2.35,8.88c-2.12,3.54-10.24,7-13.95,2-1.84-2.52-2.34-5.5-2.59-8.54C337.08,431.31,350.25,429.59,353.75,432.91Z" style="fill:#fafafa"></path><path d="M337.6,428.85a.42.42,0,0,0,.15,0c.05,0,5.86-2.34,11.5-1.08a.47.47,0,0,0,.56-.33.44.44,0,0,0-.35-.54A22.61,22.61,0,0,0,337.35,428a.45.45,0,0,0-.22.6A.48.48,0,0,0,337.6,428.85Z" style="fill:#f0f0f0"></path><path d="M349,423.38a.48.48,0,0,0,.4-.31.45.45,0,0,0-.29-.57c-5.63-1.83-11.87.92-12.1,1a.45.45,0,0,0-.2.61.48.48,0,0,0,.63.19s6.14-2.7,11.37-1A.42.42,0,0,0,349,423.38Z" style="fill:#f0f0f0"></path><path d="M348.78,419.27a.48.48,0,0,0,.39-.3.45.45,0,0,0-.28-.57c-6.19-2.14-12.11.87-12.33,1a.45.45,0,0,0-.16.62.48.48,0,0,0,.64.15s5.78-2.92,11.53-.93Z" style="fill:#f0f0f0"></path><path d="M348.47,415.22a.47.47,0,0,0,.39-.29.45.45,0,0,0-.27-.58c-5.8-2.09-12.18,1-12.41,1.13a.45.45,0,0,0-.18.62.48.48,0,0,0,.64.16c.05,0,6.24-3,11.62-1.07A.39.39,0,0,0,348.47,415.22Z" style="fill:#ebebeb"></path><path d="M332.74,232c5.64,9.92,9.82,18,10.39,47.53s.48,37.76.6,41.32,2.27,9.91,4.15,27.43-.34,38.4-.34,38.4-1.3,2.82-8.25,3.42c-6.41.55-9.58-1.77-9.58-1.77s-8.78-34.12-11.21-44.67S309,298.39,309,298.39l-4.19,28.14s1.95,9.67,0,25-5.4,31.11-5.4,31.11a29.87,29.87,0,0,1-9.84,1.55,17.09,17.09,0,0,1-8.64-2.18s-5.44-45.71-5.44-63.13,2.82-61.61,5-86.76Z" style="fill:#37474f"></path><path d="M309,298.39l-5.72-33.49s-12.07-.83-18.78-7.6c2.72,7.19,12.62,12.22,17,13.23L306.6,298l-1.78,28.52Z" style="fill:#263238"></path><path d="M342.13,327.24c-2.05-7.83-4.37-16.71-4.54-38.51-.19-23.5-3-38.78-9.88-52.74l-.91.41a89.37,89.37,0,0,1,8.14,27.43c-2.09.51-4.28.74-6.34-.51-2.6-1.57-4.46-5.26-5.55-11-2.61-13.71-5.56-18.15-5.69-18.34l-.83.53c0,.05,3,4.52,5.53,18,1.16,6.07,3.12,9.87,6,11.62a7.52,7.52,0,0,0,4,1.07,13.27,13.27,0,0,0,3.05-.41,189.63,189.63,0,0,1,1.5,23.94c.18,21.91,2.52,30.85,4.58,38.74.38,1.46.76,2.9,1.12,4.39,2.2,9.24,4.57,35.68,3.33,56.52a6.72,6.72,0,0,0,1.05-.73c1.13-20.79-1.21-46.83-3.41-56C342.9,330.16,342.52,328.71,342.13,327.24Z" style="fill:#263238"></path><path d="M296.26,266.76c-.19,1.87-4.62,46-3.59,55.43.24,2.23.54,4.32.84,6.33a115.78,115.78,0,0,1,1.17,26.64c-.65,11.69-.95,22.82-1.07,28.82l1-.14c.12-6,.41-17.06,1.06-28.63a116,116,0,0,0-1.18-26.82c-.29-2-.59-4.09-.83-6.31-1-9.32,3.54-54.77,3.59-55.23Z" style="fill:#263238"></path></g><g id="freepik--Top--inject-48"><g id="freepik--Umbrella--inject-48"><path d="M249.65,190c-5.15-.65-7.3-.79-10.67-10.72-1.79-5.28-5.37-17-6.4-19.43-.89-2.12-4.48-3.77-6.39-4.62-1.09-.51-2.81-.89-3.21-2a3.64,3.64,0,0,1-.1-1.1c-.11-.76-.82-1.26-1.24-1.91a2.77,2.77,0,0,1-.29-2.28c.26-.79.89-1.49.86-2.32-.06-1.32-1.73-2.17-1.7-3.48.24-1.3,1.33-2.47.84-3.9-.06-.47-.89-.93-.84-1.41,2.14-1.89,7.09-1.46,10.26-1.15,4.93.49,9.21,6.77,9.94,11.21a29.34,29.34,0,0,0,2.8,6.73c5.65,10.17,11.08,19.7,11.08,19.7s18,.88,23.44.88,12.69-3,21.18-1.48c0,0,.84,10.49-7.46,21C291.75,193.7,264.85,191.9,249.65,190Z" style="fill:#ffbda7"></path><path d="M235.72,149.16a8.46,8.46,0,0,0-.28-1.83,1.64,1.64,0,0,0-.55-.81,1.12,1.12,0,0,0-.82-.17A7.53,7.53,0,0,0,234,145a1.14,1.14,0,0,0-.92-1.07L232,142.48h0l-5.31,12.69h0a20.26,20.26,0,0,0,2.4.76,3.62,3.62,0,0,0,2.49-.15,7.06,7.06,0,0,0,2.19-1.27q1-.76,2-1.59l0,0v-.07A31.75,31.75,0,0,0,235.72,149.16Z" style="fill:#f0997a"></path><path d="M310.28,85.18c-9.13,2.93-17.11,11.92-21,20.89-19.21,1.36-42.35,10.78-63.3,24.8L201.19,67.66C236.83,56.34,273,58,310.28,85.18Z" style="fill:#6AA5DA"></path><path d="M289.26,106.07c-19.2,1.36-42.35,10.78-63.3,24.8L201.2,67.67C226.22,63.32,264.07,77.17,289.26,106.07Z" style="opacity:0.2"></path><path d="M310.28,85.18C273,58,236.83,56.34,201.19,67.66c25-4.34,62.88,9.51,88.07,38.41C293.17,97.1,301.15,88.11,310.28,85.18Z" style="opacity:0.1"></path><path d="M133.05,154.63c8.69-4.06,20.65-2.88,29.61,1,15-12,38.4-20.86,63.3-24.8L201.19,67.66C167.35,83.56,142,109.4,133.05,154.63Z" style="fill:#6AA5DA"></path><path d="M162.66,155.67c15-12,38.4-20.86,63.3-24.8l-24.77-63.2C179.88,81.48,161.52,117.36,162.66,155.67Z" style="opacity:0.30000000000000004"></path><path d="M133.05,154.63c8.9-45.23,34.3-71.07,68.14-87-21.31,13.82-39.67,49.7-38.53,88C153.7,151.75,141.74,150.57,133.05,154.63Z" style="opacity:0.4"></path><path d="M206.58,81.43l-.47.09-.56.12c-.15,0-.35,0-.49,0-.72.06-.57-.32-.76-.66-.28-.72-.67-1.75-1.14-3-.93-2.47-2.11-5.8-3.19-9.16-.55-1.68-1.06-3.38-1.51-5-.23-.8-.47-1.56-.65-2.3s-.38-1.44-.55-2.08-.3-1.25-.42-1.77-.24-1-.31-1.38c-.17-.76-.25-1.2-.25-1.2s.24.37.64,1.05c.21.33.44.74.71,1.21s.58,1,.89,1.59l1,1.9c.37.67.71,1.39,1.09,2.13.76,1.48,1.53,3.07,2.27,4.68,1.5,3.2,2.89,6.44,3.89,8.89l1.19,3c.09.38.47.56-.11,1-.1.09-.27.2-.39.29l-.48.3Z" style="fill:#e0e0e0"></path><path d="M264.13,220.26l-3.92-10.21h0l-2.53-6.56-6.16,2.38,6.42,16.67a5,5,0,0,1-2.8,6.36h0a5,5,0,0,1-5.45-1.2,3.24,3.24,0,0,0-3.58-.67h0a3.22,3.22,0,0,0-1.17,5.14,11.49,11.49,0,0,0,12.75,2.88h0A11.49,11.49,0,0,0,264.13,220.26Z" style="fill:#37474f"></path><path d="M256.29,202.58a5.18,5.18,0,0,0-4.37,1.68c-.93,1.16-.5,2.29,1,2.52a5.18,5.18,0,0,0,4.37-1.68C258.2,203.94,257.76,202.81,256.29,202.58Z" style="fill:#455a64"></path><path d="M256.24,204.19a1,1,0,0,1-.27.77,2.92,2.92,0,0,1-2.44.94,1,1,0,0,1-.76-.45l-.06-.16L204.53,82c-2.39-6.12-1.92-7.19-1-7.56s2,.09,4.41,6.2L256.15,204Z" style="fill:#e0e0e0"></path><path d="M214.93,102.72a100.64,100.64,0,0,0-51.87,27.73c-16.11,4.88-25.38,13.32-30,24.18,7.27-45.8,35.34-74.11,68.14-87s72.64-11.14,109.09,17.52c-10.77-4.82-23.31-4.72-38.45,2.65A100.58,100.58,0,0,0,214.93,102.72Z" style="fill:#6AA5DA"></path><path d="M271.84,87.83a100.67,100.67,0,0,0-56.91,14.89l-13.73-35C238.67,53,271.84,87.83,271.84,87.83Z" style="opacity:0.1"></path><path d="M310.28,85.18C273.83,56.52,234,54.81,201.19,67.66,238.67,53,271.83,87.83,271.83,87.83,287,80.46,299.51,80.36,310.28,85.18Z" style="opacity:0.2"></path><path d="M163.05,130.45a100.63,100.63,0,0,1,51.88-27.73l-13.74-35C163.72,82.35,163.05,130.45,163.05,130.45Z" style="fill:#6AA5DA"></path><path d="M133.05,154.63c7.27-45.8,35.34-74.11,68.14-87-37.47,14.69-38.13,62.79-38.13,62.79C147,135.33,137.68,143.77,133.05,154.63Z" style="fill:#fff;opacity:0.15"></path><path d="M225.45,135.56c-2.31-.08-5.13.44-5.55,2.21s.91,2.57.64,3.17-1.48,1.52-.72,3.18,1.06,1.81.76,2.43a2.73,2.73,0,0,0,.11,3c1.34,1.67.77,2.65,1.56,3.78.68,1,5.6,2.22,6.73,2.22s3.7-2.13,4.91-3,.94-2.9,1.09-3.84-.38-2.18-1.62-1.67c0-1,.49-2.95-1.54-2.54.26-.9.6-3.25-.94-3.05s-3.8-1.8-3.8-1.8Z" style="fill:#ffbda7"></path><path d="M240.71,146.82c0-2.22-2.57-6.37-3.54-8.17s-1.86-2.74-4.18-2.71-4.19,2.45-6.65,4.42c-1.63,1.31-3.61,1.91-3,3.13s3.08,2.15,5.4,1a15.11,15.11,0,0,0,3.26-2Z" style="fill:#ffbda7"></path><path d="M233,135.94a4.71,4.71,0,0,0-2.56,1.06,21.88,21.88,0,0,0-2.13,1.85c-.69.65-1.39,1.28-2.15,1.87s-1.62,1-2.31,1.6c-.34.29-.58.66-.4,1a2,2,0,0,0,.88.93,4.51,4.51,0,0,0,2.63.57,6.44,6.44,0,0,0,2.61-.89,14.13,14.13,0,0,0,2.4-1.49,15.65,15.65,0,0,1-2.31,1.65,6.66,6.66,0,0,1-2.68,1,4.65,4.65,0,0,1-2.82-.57,2.28,2.28,0,0,1-1-1.09,1,1,0,0,1,0-.82,1.83,1.83,0,0,1,.48-.61c.76-.63,1.61-1,2.35-1.6s1.45-1.19,2.16-1.81a21.36,21.36,0,0,1,2.22-1.78A4.77,4.77,0,0,1,233,135.94Z" style="fill:#f0997a"></path><path d="M233,148.81c.08-.59.16-1.13.24-1.68-.07,1.1-.06,2.64-.56,3.28a5,5,0,0,1-1.39,1c-.49.27-1,.53-1.51.76a4.92,4.92,0,0,1-.82.26,2.16,2.16,0,0,1-.89-.07c-.55-.11-1.09-.23-1.63-.38-1.08-.28-2.15-.6-3.21-.95,1.1.22,2.19.44,3.27.68.55.1,1.09.23,1.63.33a2,2,0,0,0,.76.05,3.8,3.8,0,0,0,.76-.26,14.33,14.33,0,0,0,1.48-.71,5.64,5.64,0,0,0,1.33-.9A2.84,2.84,0,0,0,233,148.81Z" style="fill:#f0997a"></path><path d="M231.73,144.57a9.14,9.14,0,0,1-.14,1.47,2,2,0,0,1-.94,1.16,13.56,13.56,0,0,1-2.66,1.27,1.55,1.55,0,0,1-.8,0l-.71-.2c-.46-.14-.93-.28-1.38-.45-.92-.32-1.83-.65-2.73-1,.95.24,1.88.5,2.81.76l1.4.4.69.18a1,1,0,0,0,.63,0,15.48,15.48,0,0,0,2.61-1.17C231.44,146.59,231.48,145.48,231.73,144.57Z" style="fill:#f0997a"></path><path d="M222.85,137.91c1.1-.1,4,1.07,4.23,1.83l-1.31-3.34s.44,1-.23,1.29S224.07,137.25,222.85,137.91Z" style="fill:#f0997a"></path><path d="M222.25,153.37a3,3,0,0,0,1.05.66c.38.16.77.3,1.16.43.8.25,1.6.46,2.41.65.4.09.81.17,1.22.24a3.17,3.17,0,0,0,1.18.05,8.41,8.41,0,0,0,2.13-1.17c.68-.47,1.34-1,2-1.47a2.73,2.73,0,0,0,.85-.8,3.44,3.44,0,0,0,.37-1.12,12,12,0,0,0,.11-1.22c0-.41.09-.87.08-1.23a1.46,1.46,0,0,0-.4-1,.94.94,0,0,0-1-.1l-.21.08v-.22a7.48,7.48,0,0,0,0-1.83.8.8,0,0,0-.51-.6,1.82,1.82,0,0,0-.87,0l-.15,0,0-.14a5.55,5.55,0,0,0,.25-1.85,1.94,1.94,0,0,0,0-.24l.1.07s0,.11,0,.16a5.35,5.35,0,0,1-.17,1.91l-.11-.12a2.16,2.16,0,0,1,1,0,1,1,0,0,1,.67.74,7.2,7.2,0,0,1,.06,1.9l-.21-.14a1.24,1.24,0,0,1,1.34.15,1.74,1.74,0,0,1,.52,1.23,3.34,3.34,0,0,1,0,.65l0,.61a10.88,10.88,0,0,1-.11,1.27,3.45,3.45,0,0,1-.4,1.25,2.89,2.89,0,0,1-1,.89c-.67.49-1.34,1-2,1.46a8.33,8.33,0,0,1-2.25,1.18,3.12,3.12,0,0,1-1.3-.07l-1.22-.28a21.56,21.56,0,0,1-2.4-.75,11.75,11.75,0,0,1-1.15-.5A2.8,2.8,0,0,1,222.25,153.37Z" style="fill:#f0997a"></path></g><g id="freepik--Chest--inject-48"><path d="M329.24,132.76c4.9-1.65,14.2-.09,14.73,12.36.49,11.67-4.85,25.63-5.25,30.25s1.48,7.86,3.13,8.45c-6.12,1.39-12.9-.92-16.44-8.74s1.08-21.16,1.08-21.16Z" style="fill:#263238"></path><path d="M328.88,131.13c2.1.08,5.53,4.85,4.34,8.9C330.22,141.44,325.69,132.63,328.88,131.13Z" style="fill:#6AA5DA"></path><path d="M321.91,166.14c1.33-4.44,9.16-6.74,11.43-16,2.06-8.38-1.28-14.42-3.91-14.55,1-7.64-10.47-17.12-23.72-13.61-14.12,3.73-15,1.25-17.93,6.11-3.29,5.42,2.71,10.35,2.71,10.35a7.25,7.25,0,0,0,2,10C298.38,152.94,321.91,166.14,321.91,166.14Z" style="fill:#263238"></path><path d="M314.77,174.41a63.29,63.29,0,0,1,16.84,5.46c4.68,2.42,8,5.69,8.59,10.56.26,2.27.47,5.73-4.86,27.26-2.46,10,1.87,20.41,4.35,30.19-19.54,12.74-52.7,4.08-60.8-3.63.05-8.36.68-28.55,1.92-46.94.73-10.86,11.56-21,18.4-24.66A90.27,90.27,0,0,1,314.77,174.41Z" style="fill:#f0f0f0"></path><path d="M302.74,135.21c-3.5,0-7.58,1.56-8.68,5-.33,1.05-.08,3.37-.35,4.71-.33,1.61-1,3.23-1.36,5.32-1.84,9.6,1,14.4,4,16.5,1.76,1.23,5.09,2,7.95,2.15l-.5,5.89s-7.68,8.06-6.47,17.24c16.45-6.4,23.58-15.26,23.58-15.26l1.51-15.71a4.27,4.27,0,0,0,5.16.71c4-2.42,4.73-8,2.75-10.75s-6.73-2.16-8.48.47c-3.11-1.56-2.62-4.35-.89-7.9-2.89-1.18-4.53-7.23-4.37-11.92C313.24,134.66,308.07,135.27,302.74,135.21Z" style="fill:#ffbda7"></path><path d="M305.89,144.64l-3.13,10.43-5.45-2.74C299.71,149.43,303.63,144.62,305.89,144.64Z" style="fill:#f0997a"></path><path d="M307.58,156.79l-5,2a2.81,2.81,0,0,0,3.58,1.55A2.63,2.63,0,0,0,307.58,156.79Z" style="fill:#b16668"></path><path d="M307.42,158.07a2.41,2.41,0,0,0-2.4,2.41,2.63,2.63,0,0,0,1.13-.18,2.58,2.58,0,0,0,1.63-2.19A2.2,2.2,0,0,0,307.42,158.07Z" style="fill:#f28f8f"></path><path d="M304.28,168.91c3.4-.16,11.33-.24,15.7-7.18a16.32,16.32,0,0,1-3.9,5.6c-3.61,3-12,3.67-12,3.67Z" style="fill:#f0997a"></path><path d="M310.62,142l3.89,2.22a2.35,2.35,0,0,0-.87-3.13A2.19,2.19,0,0,0,310.62,142Z" style="fill:#263238"></path><path d="M312.29,147.39a1.61,1.61,0,1,1-1.61-1.6A1.61,1.61,0,0,1,312.29,147.39Z" style="fill:#263238"></path><path d="M299.75,145.54a1.61,1.61,0,1,1-1.61-1.6A1.61,1.61,0,0,1,299.75,145.54Z" style="fill:#263238"></path><path d="M296.16,141.45l4.36-1.16a2.16,2.16,0,0,0-2.68-1.64A2.37,2.37,0,0,0,296.16,141.45Z" style="fill:#263238"></path></g><g id="freepik--Arm--inject-48"><path d="M264.15,228.84c-1.29-.45-4.32-1-5.6-1.49a27.33,27.33,0,0,1-4.52-1.81,5.18,5.18,0,0,1-2.15-2.78,11.67,11.67,0,0,1-1.32-1.86c-.45-1.17.08-1.66-.47-2.79-.35-.7-1.12-1.13-1.45-1.84-.45-1,.16-1.66,0-2.72a7.2,7.2,0,0,0-.59-1.77,4.52,4.52,0,0,1-.28-1.08c-.13-1.38.68-2.21,1.68-3.23a7.35,7.35,0,0,1,2.11-1.42l2.75,7.17a6.36,6.36,0,0,0,3.11.67c2.36-.26,3-.89,2.81-2.07a10.74,10.74,0,0,0-1.82-4.59,6,6,0,0,1-.87-4,1.91,1.91,0,0,1,.38-1,.9.9,0,0,1,.89-.32,1.49,1.49,0,0,1,.58.42c.85.85,1.71,1.69,2.6,2.5.64.58,1.3,1.16,2,1.72.34.28,1.59,1.51,2.63,2.6s1.92,3.6,2.43,4.83a5.81,5.81,0,0,0,3.71,3.53c3.47,1.06,25.19,1.68,30.19,1.4,0,0,9.89-15.61,11.89-19.65,2.12-4.28,8.47-15.49,16.79-19.39,9.69,3.63,10.86,12.55,7.13,20.23-3.29,6.8-13.37,22.14-21.2,31.25-5.11,6-5.53,7.47-20.78,5.41A187,187,0,0,1,264.15,228.84Z" style="fill:#ffbda7"></path></g></g></g></g><g id="freepik--speech-bubble--inject-48"><g id="freepik--speech-bubble--inject-48"><path d="M445.84,104.15c0,22.3-21.68,40.43-48.33,40.43a55.55,55.55,0,0,1-21.37-4.16l-.4-.16-.27.32c-5.31,6.21-16.09,8.76-23,7.56a.14.14,0,0,1-.14-.13.2.2,0,0,1,.11-.22c6.24-3.47,9.25-10.78,9.41-16.12v-.26l-.2-.19c-8-7.43-12.44-17-12.44-27.07,0-22.3,21.69-40.45,48.33-40.45S445.84,81.85,445.84,104.15Z" style="fill:#fff"></path><path d="M397.51,64.7c26.1,0,47.33,17.7,47.33,39.45s-21.23,39.43-47.33,39.43a54.58,54.58,0,0,1-21-4.09l-.39-.16-.67-.27-.47.55-.27.32c-4.43,5.18-12.57,7.5-18.68,7.5q-.61,0-1.2,0a21.43,21.43,0,0,0,8-15.69V131l-.32-.31-.21-.19c-7.81-7.25-12.12-16.6-12.12-26.34,0-21.75,21.23-39.45,47.33-39.45m0-1c-26.64,0-48.33,18.15-48.33,40.45,0,10,4.42,19.64,12.44,27.07l.2.19v.26c-.16,5.34-3.17,12.65-9.41,16.12a.2.2,0,0,0-.11.22.14.14,0,0,0,.14.13,20.51,20.51,0,0,0,3.6.29c6.67,0,15-2.63,19.44-7.85l.27-.32.4.16a55.55,55.55,0,0,0,21.37,4.16c26.65,0,48.33-18.13,48.33-40.43S424.16,63.7,397.51,63.7Z" style="fill:#6AA5DA"></path><circle cx="378.45" cy="93.69" r="8.37" style="fill:#f0997a"></circle><path d="M378.45,83.35a.68.68,0,0,1-.68-.68V78a.68.68,0,0,1,1.36,0v4.68A.67.67,0,0,1,378.45,83.35Z" style="fill:#ffbda7"></path><path d="M372.94,84.83a.71.71,0,0,1-.59-.34L370,80.43a.7.7,0,0,1,.25-.93.68.68,0,0,1,.93.25l2.34,4a.69.69,0,0,1-.25.94A.67.67,0,0,1,372.94,84.83Z" style="fill:#ffbda7"></path><path d="M368.91,88.86a.69.69,0,0,1-.34-.09l-4.05-2.34a.68.68,0,1,1,.68-1.18l4.05,2.34a.68.68,0,0,1-.34,1.27Z" style="fill:#ffbda7"></path><path d="M367.43,94.37h-4.67a.69.69,0,1,1,0-1.37h4.67a.69.69,0,1,1,0,1.37Z" style="fill:#ffbda7"></path><path d="M364.86,102.22a.69.69,0,0,1-.59-.35.68.68,0,0,1,.25-.93l4.05-2.34a.69.69,0,0,1,.68,1.19l-4.05,2.33A.61.61,0,0,1,364.86,102.22Z" style="fill:#ffbda7"></path><path d="M370.6,108a.72.72,0,0,1-.34-.09.7.7,0,0,1-.25-.93l2.34-4a.68.68,0,1,1,1.18.68l-2.34,4.05A.66.66,0,0,1,370.6,108Z" style="fill:#ffbda7"></path><path d="M378.45,110.06a.68.68,0,0,1-.68-.68V104.7a.68.68,0,1,1,1.36,0v4.68A.67.67,0,0,1,378.45,110.06Z" style="fill:#ffbda7"></path><path d="M386.3,108a.69.69,0,0,1-.59-.34l-2.34-4.05a.68.68,0,0,1,1.18-.68l2.34,4a.68.68,0,0,1-.25.93A.69.69,0,0,1,386.3,108Z" style="fill:#ffbda7"></path><path d="M392,102.22a.63.63,0,0,1-.34-.1l-4.05-2.33a.7.7,0,0,1-.25-.94.69.69,0,0,1,.93-.25l4.06,2.34a.69.69,0,0,1-.35,1.28Z" style="fill:#ffbda7"></path><path d="M394.15,94.37h-4.68a.69.69,0,0,1,0-1.37h4.68a.69.69,0,0,1,0,1.37Z" style="fill:#ffbda7"></path><path d="M388,88.86a.68.68,0,0,1-.34-1.27l4.05-2.34a.69.69,0,0,1,.94.25.7.7,0,0,1-.25.93l-4.06,2.34A.67.67,0,0,1,388,88.86Z" style="fill:#ffbda7"></path><path d="M384,84.83a.68.68,0,0,1-.59-1l2.34-4a.68.68,0,1,1,1.18.68l-2.34,4.06A.68.68,0,0,1,384,84.83Z" style="fill:#ffbda7"></path><path d="M371.82,131.65a.42.42,0,0,1-.3-.71l53.06-53.06a.42.42,0,0,1,.59,0,.41.41,0,0,1,0,.59l-53.06,53.06A.4.4,0,0,1,371.82,131.65Z" style="fill:#e0e0e0"></path><path d="M430.7,109.56h-.45a5.88,5.88,0,0,0-8.14-3,8.66,8.66,0,0,0-17,2.44h0c0,.18,0,.35,0,.53h0a4.07,4.07,0,0,0,0,8.13H430.7a4.07,4.07,0,0,0,0-8.13Z" style="fill:#e0e0e0"></path><path d="M405.49,121.42a.39.39,0,0,1-.15,0,.43.43,0,0,1-.24-.55l.31-.77a.41.41,0,1,1,.77.3l-.3.78A.41.41,0,0,1,405.49,121.42Z" style="fill:#e0e0e0"></path><path d="M402.41,129.3l-.16,0a.41.41,0,0,1-.23-.54l.51-1.31a.42.42,0,0,1,.78.3L402.8,129A.43.43,0,0,1,402.41,129.3Zm1.54-3.94a.4.4,0,0,1-.15,0,.41.41,0,0,1-.24-.54l.51-1.31a.43.43,0,0,1,.54-.24.41.41,0,0,1,.24.54l-.51,1.32A.43.43,0,0,1,404,125.36Z" style="fill:#e0e0e0"></path><path d="M401.08,132.7l-.16,0a.42.42,0,0,1-.23-.55l.3-.77a.42.42,0,0,1,.78.3l-.31.78A.41.41,0,0,1,401.08,132.7Z" style="fill:#e0e0e0"></path><path d="M411,121.42a.39.39,0,0,1-.15,0,.43.43,0,0,1-.24-.55l.3-.77a.42.42,0,0,1,.54-.24.41.41,0,0,1,.24.54l-.3.78A.43.43,0,0,1,411,121.42Z" style="fill:#e0e0e0"></path><path d="M407.9,129.3a.45.45,0,0,1-.16,0,.41.41,0,0,1-.23-.54l.51-1.31a.41.41,0,0,1,.54-.24.42.42,0,0,1,.24.54l-.52,1.32A.41.41,0,0,1,407.9,129.3Zm1.54-3.94-.16,0a.41.41,0,0,1-.23-.54l.51-1.31a.43.43,0,0,1,.54-.24.42.42,0,0,1,.24.54l-.51,1.32A.43.43,0,0,1,409.44,125.36Z" style="fill:#e0e0e0"></path><path d="M406.56,132.7a.4.4,0,0,1-.15,0,.42.42,0,0,1-.24-.54l.31-.77a.42.42,0,0,1,.78.3l-.31.78A.41.41,0,0,1,406.56,132.7Z" style="fill:#e0e0e0"></path><path d="M416.47,121.42a.47.47,0,0,1-.16,0,.42.42,0,0,1-.23-.55l.3-.77a.42.42,0,0,1,.78.3l-.3.78A.43.43,0,0,1,416.47,121.42Z" style="fill:#e0e0e0"></path><path d="M413.38,129.3l-.15,0a.42.42,0,0,1-.24-.54l.52-1.31a.41.41,0,0,1,.54-.24.43.43,0,0,1,.24.54l-.52,1.32A.41.41,0,0,1,413.38,129.3Zm1.55-3.94a.41.41,0,0,1-.16,0,.41.41,0,0,1-.23-.54l.51-1.31a.43.43,0,0,1,.54-.24.42.42,0,0,1,.24.54l-.52,1.32A.41.41,0,0,1,414.93,125.36Z" style="fill:#e0e0e0"></path><path d="M412.05,132.7l-.15,0a.44.44,0,0,1-.24-.55l.31-.77a.41.41,0,0,1,.54-.24.43.43,0,0,1,.24.54l-.31.78A.41.41,0,0,1,412.05,132.7Z" style="fill:#e0e0e0"></path><path d="M422,121.42a.39.39,0,0,1-.15,0,.42.42,0,0,1-.23-.55l.3-.77a.42.42,0,0,1,.78.3l-.31.78A.41.41,0,0,1,422,121.42Z" style="fill:#e0e0e0"></path><path d="M418.87,129.3l-.15,0a.42.42,0,0,1-.24-.54l.52-1.31a.41.41,0,0,1,.54-.24.43.43,0,0,1,.24.54l-.52,1.32A.41.41,0,0,1,418.87,129.3Zm1.54-3.94a.4.4,0,0,1-.15,0,.42.42,0,0,1-.24-.54l.52-1.31a.42.42,0,0,1,.54-.24.43.43,0,0,1,.24.54l-.52,1.32A.41.41,0,0,1,420.41,125.36Z" style="fill:#e0e0e0"></path><path d="M417.54,132.7a.4.4,0,0,1-.15,0,.41.41,0,0,1-.24-.54l.31-.77a.41.41,0,1,1,.77.3l-.3.78A.42.42,0,0,1,417.54,132.7Z" style="fill:#e0e0e0"></path><path d="M427.44,121.42a.39.39,0,0,1-.15,0,.44.44,0,0,1-.24-.55l.31-.77a.41.41,0,0,1,.54-.24.43.43,0,0,1,.24.54l-.31.78A.41.41,0,0,1,427.44,121.42Z" style="fill:#e0e0e0"></path><path d="M424.36,129.3l-.15,0a.41.41,0,0,1-.24-.54l.52-1.31a.41.41,0,1,1,.77.3l-.51,1.32A.41.41,0,0,1,424.36,129.3Zm1.54-3.94-.15,0a.41.41,0,0,1-.24-.54l.52-1.31a.42.42,0,0,1,.54-.24.42.42,0,0,1,.23.54l-.51,1.32A.41.41,0,0,1,425.9,125.36Z" style="fill:#e0e0e0"></path><path d="M423,132.7l-.15,0a.43.43,0,0,1-.24-.55l.3-.77a.43.43,0,0,1,.55-.24.41.41,0,0,1,.23.54l-.3.78A.42.42,0,0,1,423,132.7Z" style="fill:#e0e0e0"></path></g></g></svg>
